<svg width="2415" height="1432" viewBox="0 0 2415 1432" fill="none" xmlns="http://www.w3.org/2000/svg">
<g clip-path="url(#clip0_563_16)">
<path opacity="0.999" d="M862.712 30.1136C874.334 16.3125 891.114 6.73783 913.233 1.5H915.789H918.578H921.367H924.156H926.945H929.734H932.523H935.312H938.102H940.891H943.68H946.469H949.258H952.047H954.836H957.625H960.414H963.203H965.992H968.781H971.57H974.359H977.148H979.938H982.727H985.516H988.305H991.094H993.883H996.672H999.461H1002.25H1005.04H1007.83H1010.62H1013.41H1016.2H1018.98H1021.77H1024.56H1027.35H1030.14H1032.93H1035.72H1038.51H1041.3H1044.09H1046.88H1049.66H1052.45H1055.24H1058.03H1060.82H1063.61H1066.4H1069.19H1071.98H1074.77H1077.55H1080.34H1083.13H1085.92H1088.71H1091.5H1094.29H1097.08H1099.87H1102.66H1105.45H1108.23H1111.02H1113.81H1116.6H1119.39H1122.18H1124.97H1127.76H1130.55H1133.34H1136.12H1138.91H1141.7H1144.49H1147.28H1150.07H1152.86H1155.65H1158.44H1161.23H1164.02H1166.8H1169.59H1172.38H1175.17H1177.96H1180.75H1183.54H1186.33H1189.12H1191.91H1194.7H1197.48H1200.27H1203.06H1205.85H1208.64H1211.43H1214.22H1217.01H1219.8H1222.59H1225.38H1228.16H1230.95H1233.74H1236.53H1239.32H1242.11H1244.9H1247.69H1250.48H1253.27H1256.05H1258.84H1261.63H1264.42H1267.21H1270H1272.79H1275.58H1278.37H1281.16H1283.95H1286.73H1289.52H1292.31H1295.1H1297.89H1300.68H1303.47H1306.26H1309.05H1311.84H1314.62H1317.41H1320.2H1322.99H1325.78H1328.57H1331.36H1334.15H1336.94H1339.73H1342.52H1345.3H1348.09H1350.88H1353.67H1356.46H1359.25H1362.04H1364.83H1367.62H1370.41H1373.2H1375.98H1378.77H1381.56H1384.35H1387.14H1389.93H1392.72H1395.51H1398.3H1401.09H1403.88H1406.66H1409.45H1412.24H1415.03H1417.82H1420.61H1423.4H1426.19H1428.98H1431.77H1434.55H1437.34H1440.13H1442.92H1445.71H1448.5H1451.29H1454.08H1456.87H1459.66H1462.45H1465.23H1468.02H1470.81H1473.6H1476.39H1479.18H1481.97H1484.76H1487.55H1490.34H1493.12H1495.91H1498.7H1501.49H1504.28H1507.07H1509.86H1512.65H1515.44H1518.23H1521.02H1523.8H1526.59H1529.38H1532.17H1534.96H1537.75H1540.54H1543.33H1546.12H1548.91H1551.7H1554.48H1557.27H1560.06H1562.85H1565.64H1568.43H1571.22H1574.01H1576.8H1579.59H1582.38H1585.16H1587.95H1590.74H1593.53H1596.32H1599.11H1601.9H1604.69H1607.48H1610.27H1613.05H1615.84H1618.63H1621.42H1624.21H1627H1629.79H1632.58H1635.37H1638.16H1640.95H1643.73H1646.52H1649.31H1652.1H1654.89H1657.68H1660.47H1663.26H1666.05H1668.84H1671.62H1674.41H1677.2H1679.99H1682.78H1685.57H1688.36H1691.15H1693.94H1696.73H1699.52H1702.3H1705.09H1707.88H1710.67H1713.46H1716.25H1719.04H1721.83H1724.62H1727.41H1730.2H1732.98H1735.77H1738.56H1741.35H1744.14H1746.93H1749.72H1752.51H1755.3H1758.09H1760.88H1763.66H1766.45H1769.24H1772.03H1774.82H1777.61H1780.4H1783.19H1785.98H1788.77H1791.55H1794.34H1797.13H1799.92H1802.71H1805.5H1808.29H1811.08H1813.87H1816.66H1819.45H1822.23H1825.02H1827.81H1830.6H1833.39H1836.18H1838.97H1841.76H1844.55H1847.34H1850.12H1852.91H1855.7H1858.49H1861.28H1864.07H1866.86H1869.65H1872.44H1875.23H1878.02H1880.8H1883.59H1886.38H1889.17H1891.96H1894.75H1897.54H1900.33H1903.12H1905.91H1908.7H1911.48H1914.27H1917.06H1919.85H1922.64H1925.43H1928.22H1931.01H1933.8H1936.59H1939.38H1942.16H1944.95H1947.74H1950.53H1953.32H1956.11H1958.9H1961.69H1964.48H1967.27H1970.05H1972.84H1975.63H1978.42H1981.21H1984H1986.79H1989.58H1992.37H1995.16H1997.95H2000.73H2003.52H2006.31H2009.1H2011.89H2014.68H2017.47H2020.26H2023.05H2025.84H2028.62H2031.41H2034.2H2036.99H2039.78H2042.57H2045.36H2048.15H2050.94H2053.73H2056.52H2059.3H2062.09H2064.88H2067.67H2070.46H2073.25H2076.04H2078.83H2081.62H2084.41H2087.2H2089.98H2092.77H2095.56H2098.35H2101.14H2103.93H2106.72H2109.51H2112.3H2115.09H2117.88H2120.66H2123.45H2126.24H2129.03H2131.82H2134.61H2137.4H2140.19H2142.98H2145.77H2148.55H2151.34H2154.13H2156.92H2159.71H2162.5H2165.29H2168.08H2170.87H2173.66H2176.45H2179.23H2182.02H2184.81H2187.6H2190.39H2193.18H2195.97H2198.76H2201.55H2204.34H2207.12H2209.91H2212.7H2215.49H2218.28H2221.07H2223.86H2226.65H2229.44H2232.23H2235.02H2237.8H2240.59H2243.38H2246.17H2248.96H2251.75H2254.54H2257.33H2260.12H2262.91H2265.7H2268.48H2271.27H2274.06H2276.85H2279.64H2282.43H2285.22H2288.01H2290.8H2293.59H2296.38H2299.16H2301.95H2304.74H2307.53H2310.32H2313.11H2315.9H2318.69H2321.48H2324.27H2327.05H2329.84H2332.63H2335.42H2338.21H2340.78C2360.81 5.88279 2376.67 14.1765 2388.47 26.301C2400.28 38.4309 2408.15 54.5196 2412 74.6886V74.7227V74.7598V74.7969V74.834V74.8711V74.9082V74.9453V74.9824V75.0195V75.0566V75.0938V75.1309V75.168V75.2051V75.2422V75.2793V75.3164V75.3535V75.3906V75.4277V75.4648V75.5019V75.5391V75.5762V75.6133V75.6504V75.6875V75.7246V75.7617V75.7988V75.8359V75.873V75.9101V75.9473V75.9844V76.0215V76.0586V76.0957V76.1328V76.1699V76.207V76.2441V76.2812V76.3184V76.3555V76.3926V76.4297V76.4668V76.5039V76.541V76.5781V76.6152V76.6523V76.6894V76.7266V76.7637V76.8008V76.8379V76.875V76.9121V76.9492V76.9863V77.0234V77.0605V77.0976V77.1348V77.1719V77.209V77.2461V77.2832V77.3203V77.3574V77.3945V77.4316V77.4687V77.5059V77.543V77.5801V77.6172V77.6543V77.6914V77.7285V77.7656V77.8027V77.8398V77.8769V77.9141V77.9512V77.9883V78.0254V78.0625V78.0996V78.1367V78.1738V78.2109V78.248V78.2851V78.3223V78.3594V78.3965V78.4336V78.4707V78.5078V78.5449V78.582V78.6191V78.6562V78.6934V78.7305V78.7676V78.8047V78.8418V78.8789V78.916V78.9531V78.9902V79.0273V79.0644V79.1016V79.1387V79.1758V79.2129V79.25V79.2871V79.3242V79.3613V79.3984V79.4355V79.4726V79.5098V79.5469V79.584V79.6211V79.6582V79.6953V79.7324V79.7695V79.8066V79.8437V79.8809V79.918V79.9551V79.9922V80.0293V80.0664V80.1035V80.1406V80.1777V80.2148V80.2519V80.2891V80.3262V80.3633V80.4004V80.4375V80.4746V80.5117V80.5488V80.5859V80.623V80.6601V80.6973V80.7344V80.7715V80.8086V80.8457V80.8828V80.9199V80.957V80.9941V81.0312V81.0684V81.1055V81.1426V81.1797V81.2168V81.2539V81.291V81.3281V81.3652V81.4023V81.4394V81.4766V81.5137V81.5508V81.5879V81.625V81.6621V81.6992V81.7363V81.7734V81.8105V81.8476V81.8848V81.9219V81.959V81.9961V82.0332V82.0703V82.1074V82.1445V82.1816V82.2187V82.2559V82.293V82.3301V82.3672V82.4043V82.4414V82.4785V82.5156V82.5527V82.5898V82.627V82.6641V82.7012V82.7383V82.7754V82.8125V82.8496V82.8867V82.9238V82.9609V82.998V83.0352V83.0723V83.1094V83.1465V83.1836V83.2207V83.2578V83.2949V83.332V83.3691V83.4062V83.4434V83.4805V83.5176V83.5547V83.5918V83.6289V83.666V83.7031V83.7402V83.7773V83.8145V83.8516V83.8887V83.9258V83.9629V84V84.0371V84.0742V84.1113V84.1484V84.1855V84.2227V84.2598V84.2969V84.334V84.3711V84.4082V84.4453V84.4824V84.5195V84.5566V84.5938V84.6309V84.668V84.7051V84.7422V84.7793V84.8164V84.8535V84.8906V84.9277V84.9648V85.002V85.0391V85.0762V85.1133V85.1504V85.1875V85.2246V85.2617V85.2988V85.3359V85.373V85.4102V85.4473V85.4844V85.5215V85.5586V85.5957V85.6328V85.6699V85.707V85.7441V85.7813V85.8184V85.8555V85.8926V85.9297V85.9668V86.0039V86.041V86.0781V86.1152V86.1524V86.1895V86.2266V86.2637V86.3008V86.3379V86.375V86.4121V86.4492V86.4863V86.5234V86.5606V86.5977V86.6348V86.6719V86.709V86.7461V86.7832V86.8203V86.8574V86.8945V86.9316V86.9688V87.0059V87.043V87.0801V87.1172V87.1543V87.1914V87.2285V87.2656V87.3027V87.3399V87.377V87.4141V87.4512V87.4883V87.5254V87.5625V87.5996V87.6367V87.6738V87.7109V87.7481V87.7852V87.8223V87.8594V87.8965V87.9336V87.9707V88.0078V88.0449V88.082V88.1191V88.1563V88.1934V88.2305V88.2676V88.3047V88.3418V88.3789V88.416V88.4531V88.4902V88.5274V88.5645V88.6016V88.6387V88.6758V88.7129V88.75V88.7871V88.8242V88.8613V88.8984V88.9356V88.9727V89.0098V89.0469V89.084V89.1211V89.1582V89.1953V89.2324V89.2695V89.3066V89.3438V89.3809V89.418V89.4551V89.4922V89.5293V89.5664V89.6035V89.6406V89.6777V89.7149V89.752V89.7891V89.8262V89.8633V89.9004V89.9375V89.9746V90.0117V90.0488V90.0859V90.1231V90.1602V90.1973V90.2344V90.2715V90.3086V90.3457V90.3828V90.4199V90.457V90.4941V90.5313V90.5684V90.6055V90.6426V90.6797V90.7168V90.7539V90.791V90.8281V90.8652V90.9024V90.9395V90.9766V91.0137V91.0508V91.0879V91.125V91.1621V91.1992V91.2363V91.2734V91.3106V91.3477V91.3848V91.4219V91.459V91.4961V91.5332V91.5703V91.6074V91.6445V91.6816V91.7188V91.7559V91.793V91.8301V91.8672V91.9043V91.9414V91.9785V92.0156V92.0527V92.0899V92.127V92.1641V92.2012V92.2383V92.2754V92.3125V92.3496V92.3867V92.4238V92.4609V92.4981V92.5352V92.5723V92.6094V92.6465V92.6836V92.7207V92.7578V92.7949V92.832V92.8691V92.9062V92.9434V92.9805V93.0176V93.0547V93.0918V93.1289V93.166V93.2031V93.2402V93.2773V93.3145V93.3298C2408.52 113.545 2400.91 129.694 2389.27 141.902C2377.64 154.101 2361.85 162.495 2341.78 167C1865.6 167.667 1389.41 167.667 913.226 167C891.226 161.974 874.507 152.626 862.887 139.069C851.252 125.495 844.578 107.524 843.004 84.9938C844.456 62.1756 851.073 43.9356 862.712 30.1136Z" fill="#141413" stroke="#141413" stroke-width="4"/>
<path opacity="0.999" d="M2388.95 671.775C2400.75 683.98 2408.47 700.236 2412 720.671V720.676V720.711V720.746V720.781V720.816V720.852V720.887V720.922V720.957V720.992V721.027V721.063V721.098V721.133V721.168V721.203V721.238V721.273V721.309V721.344V721.379V721.414V721.449V721.484V721.52V721.555V721.59V721.625V721.66V721.695V721.73V721.766V721.801V721.836V721.871V721.906V721.941V721.977V722.012V722.047V722.082V722.117V722.152V722.188V722.223V722.258V722.293V722.328V722.363V722.398V722.434V722.469V722.504V722.539V722.574V722.609V722.645V722.68V722.715V722.75V722.785V722.82V722.855V722.891V722.926V722.961V722.996V723.031V723.066V723.102V723.137V723.172V723.207V723.242V723.277V723.313V723.348V723.383V723.418V723.453V723.488V723.523V723.559V723.594V723.629V723.664V723.699V723.734V723.77V723.805V723.84V723.875V723.91V723.945V723.98V724.016V724.051V724.086V724.121V724.156V724.191V724.227V724.262V724.297V724.332V724.367V724.402V724.438V724.473V724.508V724.543V724.578V724.613V724.648V724.684V724.719V724.754V724.789V724.824V724.859V724.895V724.93V724.965V725V725.035V725.07V725.105V725.141V725.176V725.211V725.246V725.281V725.316V725.352V725.387V725.422V725.457V725.492V725.527V725.563V725.598V725.633V725.668V725.703V725.738V725.773V725.809V725.844V725.879V725.914V725.949V725.984V726.02V726.055V726.09V726.125V726.16V726.195V726.23V726.266V726.301V726.336V726.371V726.406V726.441V726.477V726.512V726.547V726.582V726.617V726.652V726.688V726.723V726.758V726.793V726.828V726.863V726.898V726.934V726.969V727.004V727.039V727.074V727.109V727.145V727.18V727.215V727.25V727.285V727.32V727.355V727.391V727.426V727.461V727.496V727.531V727.566V727.602V727.637V727.672V727.707V727.742V727.777V727.813V727.848V727.883V727.918V727.953V727.988V728.023V728.059V728.094V728.129V728.164V728.199V728.234V728.27V728.305V728.34V728.375V728.41V728.445V728.48V728.516V728.551V728.586V728.621V728.656V728.691V728.727V728.762V728.797V728.832V728.867V728.902V728.938V728.973V729.008V729.043V729.078V729.113V729.148V729.184V729.219V729.254V729.289V729.324V729.359V729.395V729.43V729.465V729.5V729.535V729.57V729.605V729.641V729.676V729.711V729.746V729.781V729.816V729.852V729.887V729.922V729.957V729.992V730.027V730.063V730.098V730.133V730.168V730.203V730.238V730.273V730.309V730.344V730.379V730.414V730.449V730.484V730.52V730.555V730.59V730.625V730.66V730.695V730.73V730.766V730.801V730.836V730.871V730.906V730.941V730.977V731.012V731.047V731.082V731.117V731.152V731.188V731.223V731.258V731.293V731.328V731.363V731.398V731.434V731.469V731.504V731.539V731.574V731.609V731.645V731.68V731.715V731.75V731.785V731.82V731.855V731.891V731.926V731.961V731.996V732.031V732.066V732.102V732.137V732.172V732.207V732.242V732.277V732.313V732.348V732.383V732.418V732.453V732.488V732.523V732.559V732.594V732.629V732.664V732.699V732.734V732.77V732.805V732.84V732.875V732.91V732.945V732.98V733.016V733.051V733.086V733.121V733.156V733.191V733.227V733.262V733.297V733.332V733.367V733.402V733.438V733.473V733.508V733.543V733.578V733.613V733.648V733.684V733.719V733.754V733.789V733.824V733.859V733.895V733.93V733.965V734V734.035V734.07V734.105V734.141V734.176V734.211V734.246V734.281V734.316V734.352V734.387V734.422V734.457V734.492V734.527V734.563V734.598V734.633V734.668V734.703V734.738V734.773V734.809V734.844V734.879V734.914V734.949V734.984V735.02V735.055V735.09V735.125V735.16V735.195V735.23V735.266V735.301V735.336V735.371V735.406V735.441V735.477V735.512V735.547V735.582V735.617V735.652V735.688V735.723V735.758V735.793V735.828V735.863V735.898V735.934V735.969V736.004V736.039V736.074V736.109V736.145V736.18V736.215V736.25V736.285V736.32V736.355V736.391V736.426V736.461V736.496V736.531V736.566V736.602V736.637V736.672V736.707V736.742V736.777V736.813V736.848V736.883V736.918V736.953V736.988V737.023V737.059V737.094V737.129V737.164V737.199V737.234V737.27V737.305V737.34V737.375V737.41V737.445V737.48V737.516V737.551V737.586V737.621V737.656V737.691V737.727V737.762V737.797V737.832V737.867V737.902V737.938V737.973V738.008V738.043V738.078V738.113V738.148V738.184V738.219V738.254V738.289V738.324V738.33C2408.52 758.545 2400.91 774.694 2389.27 786.902C2377.64 799.101 2361.85 807.495 2341.78 812C1585.24 812.667 828.711 812.667 72.1765 812C41.3839 806.524 19.8404 789.494 7.35971 760.761C5.13436 754.596 3.34827 748.436 2 742.284V742.246V742.195V742.145V742.094V742.043V741.992V741.941V741.891V741.84V741.789V741.738V741.687V741.637V741.586V741.535V741.484V741.434V741.383V741.332V741.281V741.23V741.18V741.129V741.078V741.027V740.977V740.926V740.875V740.824V740.773V740.723V740.672V740.621V740.57V740.519V740.469V740.418V740.367V740.316V740.266V740.215V740.164V740.113V740.062V740.012V739.961V739.91V739.859V739.809V739.758V739.707V739.656V739.605V739.555V739.504V739.453V739.402V739.351V739.301V739.25V739.199V739.148V739.098V739.047V738.996V738.945V738.894V738.844V738.793V738.742V738.691V738.641V738.59V738.539V738.488V738.437V738.387V738.336V738.285V738.234V738.184V738.133V738.082V738.031V737.98V737.93V737.879V737.828V737.777V737.726V737.676V737.625V737.574V737.523V737.473V737.422V737.371V737.32V737.269V737.219V737.168V737.117V737.066V737.016V736.965V736.914V736.863V736.812V736.762V736.711V736.66V736.609V736.559V736.508V736.457V736.406V736.355V736.305V736.254V736.203V736.152V736.101V736.051V736V735.949V735.898V735.848V735.797V735.746V735.695V735.644V735.594V735.543V735.492V735.441V735.391V735.34V735.289V735.238V735.187V735.137V735.086V735.035V734.984V734.934V734.883V734.832V734.781V734.73V734.68V734.629V734.578V734.527V734.476V734.426V734.375V734.324V734.273V734.223V734.172V734.121V734.07V734.019V733.969V733.918V733.867V733.816V733.766V733.715V733.664V733.613V733.562V733.512V733.461V733.41V733.359V733.309V733.258V733.207V733.156V733.105V733.055V733.004V732.953V732.902V732.852V732.801V732.75V732.699V732.648V732.598V732.547V732.496V732.445V732.394V732.344V732.293V732.242V732.191V732.141V732.09V732.039V731.988V731.937V731.887V731.836V731.785V731.734V731.684V731.633V731.582V731.531V731.48V731.43V731.379V731.328V731.277V731.227V731.176V731.125V731.074V731.023V730.973V730.922V730.871V730.82V730.77V730.719V730.668V730.617V730.566V730.516V730.465V730.414V730.363V730.312V730.262V730.211V730.16V730.109V730.059V730.008V729.957V729.906V729.855V729.805V729.754V729.703V729.652V729.602V729.551V729.5V729.449V729.398V729.348V729.297V729.246V729.195V729.145V729.094V729.043V728.992V728.941V728.891V728.84V728.789V728.738V728.688V728.637V728.586V728.535V728.484V728.434V728.383V728.332V728.281V728.23V728.18V728.129V728.078V728.027V727.977V727.926V727.875V727.824V727.773V727.723V727.672V727.621V727.57V727.52V727.469V727.418V727.367V727.316V727.266V727.215V727.164V727.113V727.063V727.012V726.961V726.91V726.859V726.809V726.758V726.707V726.656V726.606V726.555V726.504V726.453V726.402V726.352V726.301V726.25V726.199V726.149V726.098V726.047V725.996V725.945V725.895V725.844V725.793V725.742V725.691V725.641V725.59V725.539V725.488V725.438V725.387V725.336V725.285V725.234V725.184V725.133V725.082V725.031V724.981V724.93V724.879V724.828V724.777V724.727V724.676V724.625V724.574V724.524V724.473V724.422V724.371V724.32V724.27V724.219V724.168V724.117V724.066V724.016V723.965V723.914V723.863V723.813V723.762V723.711V723.66V723.609V723.559V723.508V723.457V723.406V723.356V723.305V723.254V723.203V723.152V723.102V723.051V723V722.949V722.899V722.848V722.797V722.746V722.695V722.645V722.594V722.543V722.492V722.442V722.391V722.34V722.289V722.238V722.188V722.137V722.086V722.035V721.984V721.934V721.883V721.832V721.781V721.731V721.68V721.629V721.578V721.527V721.477V721.426V721.375V721.324V721.274V721.223V721.172V721.121V721.07V721.02V720.969V720.918V720.867V720.817V720.766V720.715V720.664V720.613V720.563V720.512V720.461V720.41V720.359V720.309V720.258V720.207V720.156V720.106V720.055V720.004V719.953V719.902V719.852V719.801V719.75V719.699V719.649V719.598V719.547V719.496V719.445V719.395V719.344V719.293V719.242V719.191V719.141V719.09V719.039V718.988V718.938V718.887V718.836V718.785V718.734V718.684V718.633V718.582V718.531V718.481V718.43V718.379V718.328V718.277V718.227V718.176V718.125V718.074V718.023V717.973V717.922V717.871V717.82V717.77V717.719V717.668V717.617V717.566V717.516V717.465V717.414V717.363V717.313V717.262V717.211V717.16V717.109V717.059V717.008V716.957V716.906V716.855V716.805V716.754V716.703V716.702C8.21272 686.383 25.4142 664.821 53.7424 651.86C59.7707 649.791 65.9182 648.171 72.1855 647C828.387 646.333 1584.59 646.333 2340.79 647C2361.14 651.287 2377.15 659.575 2388.95 671.775Z" fill="#141413" stroke="#141413" stroke-width="4"/>
<path opacity="0.999" d="M2388.62 1288.44C2400.42 1300.48 2408.24 1316.52 2412 1336.68V1336.69V1336.72V1336.76V1336.8V1336.83V1336.87V1336.91V1336.95V1336.98V1337.02V1337.06V1337.09V1337.13V1337.17V1337.2V1337.24V1337.28V1337.32V1337.35V1337.39V1337.43V1337.46V1337.5V1337.54V1337.58V1337.61V1337.65V1337.69V1337.72V1337.76V1337.8V1337.84V1337.87V1337.91V1337.95V1337.98V1338.02V1338.06V1338.1V1338.13V1338.17V1338.21V1338.24V1338.28V1338.32V1338.35V1338.39V1338.43V1338.47V1338.5V1338.54V1338.58V1338.61V1338.65V1338.69V1338.73V1338.76V1338.8V1338.84V1338.87V1338.91V1338.95V1338.99V1339.02V1339.06V1339.1V1339.13V1339.17V1339.21V1339.25V1339.28V1339.32V1339.36V1339.39V1339.43V1339.47V1339.51V1339.54V1339.58V1339.62V1339.65V1339.69V1339.73V1339.76V1339.8V1339.84V1339.88V1339.91V1339.95V1339.99V1340.02V1340.06V1340.1V1340.14V1340.17V1340.21V1340.25V1340.28V1340.32V1340.36V1340.4V1340.43V1340.47V1340.51V1340.54V1340.58V1340.62V1340.66V1340.69V1340.73V1340.77V1340.8V1340.84V1340.88V1340.92V1340.95V1340.99V1341.03V1341.06V1341.1V1341.14V1341.17V1341.21V1341.25V1341.29V1341.32V1341.36V1341.4V1341.43V1341.47V1341.51V1341.55V1341.58V1341.62V1341.66V1341.69V1341.73V1341.77V1341.81V1341.84V1341.88V1341.92V1341.95V1341.99V1342.03V1342.07V1342.1V1342.14V1342.18V1342.21V1342.25V1342.29V1342.33V1342.36V1342.4V1342.44V1342.47V1342.51V1342.55V1342.59V1342.62V1342.66V1342.7V1342.73V1342.77V1342.81V1342.85V1342.88V1342.92V1342.96V1342.99V1343.03V1343.07V1343.1V1343.14V1343.18V1343.22V1343.25V1343.29V1343.33V1343.36V1343.4V1343.44V1343.48V1343.51V1343.55V1343.59V1343.62V1343.66V1343.7V1343.74V1343.77V1343.81V1343.85V1343.88V1343.92V1343.96V1344V1344.03V1344.07V1344.11V1344.14V1344.18V1344.22V1344.26V1344.29V1344.33V1344.37V1344.4V1344.44V1344.48V1344.52V1344.55V1344.59V1344.63V1344.66V1344.7V1344.74V1344.78V1344.81V1344.85V1344.89V1344.92V1344.96V1345V1345.03V1345.07V1345.11V1345.15V1345.18V1345.22V1345.26V1345.29V1345.33V1345.37V1345.41V1345.44V1345.48V1345.52V1345.55V1345.59V1345.63V1345.67V1345.7V1345.74V1345.78V1345.81V1345.85V1345.89V1345.93V1345.96V1346V1346.04V1346.07V1346.11V1346.15V1346.19V1346.22V1346.26V1346.3V1346.33V1346.37V1346.41V1346.45V1346.48V1346.52V1346.56V1346.59V1346.63V1346.67V1346.71V1346.74V1346.78V1346.82V1346.85V1346.89V1346.93V1346.97V1347V1347.04V1347.08V1347.11V1347.15V1347.19V1347.22V1347.26V1347.3V1347.34V1347.37V1347.41V1347.45V1347.48V1347.52V1347.56V1347.6V1347.63V1347.67V1347.71V1347.74V1347.78V1347.82V1347.86V1347.89V1347.93V1347.97V1348V1348.04V1348.08V1348.12V1348.15V1348.19V1348.23V1348.26V1348.3V1348.34V1348.38V1348.41V1348.45V1348.49V1348.52V1348.56V1348.6V1348.64V1348.67V1348.71V1348.75V1348.78V1348.82V1348.86V1348.9V1348.93V1348.97V1349.01V1349.04V1349.08V1349.12V1349.16V1349.19V1349.23V1349.27V1349.3V1349.34V1349.38V1349.41V1349.45V1349.49V1349.53V1349.56V1349.6V1349.64V1349.67V1349.71V1349.75V1349.79V1349.82V1349.86V1349.9V1349.93V1349.97V1350.01V1350.05V1350.08V1350.12V1350.16V1350.19V1350.23V1350.27V1350.31V1350.34V1350.38V1350.42V1350.45V1350.49V1350.53V1350.57V1350.6V1350.64V1350.68V1350.71V1350.75V1350.79V1350.83V1350.86V1350.9V1350.94V1350.97V1351.01V1351.05V1351.08V1351.12V1351.16V1351.2V1351.23V1351.27V1351.31V1351.34V1351.38V1351.42V1351.46V1351.49V1351.53V1351.57V1351.6V1351.64V1351.68V1351.72V1351.75V1351.79V1351.83V1351.86V1351.9V1351.94V1351.98V1352.01V1352.05V1352.09V1352.12V1352.16V1352.2V1352.24V1352.27V1352.31V1352.35V1352.38V1352.42V1352.46V1352.5V1352.53V1352.57V1352.61V1352.64V1352.68V1352.72V1352.75V1352.79V1352.83V1352.87V1352.9V1352.94V1352.98V1353.01V1353.05V1353.09V1353.13V1353.16V1353.2V1353.24V1353.27V1353.31V1353.35V1353.39V1353.42V1353.46V1353.5V1353.53V1353.57V1353.61V1353.65V1353.68V1353.72V1353.76V1353.79V1353.83V1353.87V1353.9V1353.94V1353.98V1354.02V1354.05V1354.09V1354.13V1354.16V1354.2V1354.24V1354.28V1354.31V1354.35V1354.39V1354.42V1354.46V1354.5V1354.54V1354.57V1354.61V1354.65V1354.68V1354.72V1354.76V1354.8V1354.83V1354.87V1354.91V1354.94V1354.98V1355.02V1355.05V1355.09V1355.13V1355.17V1355.2V1355.24V1355.28V1355.31V1355.33C2408.43 1375.55 2400.78 1391.75 2389.13 1404.04C2377.5 1416.33 2361.75 1424.84 2341.77 1429.5H2339.21H2336.42H2333.63H2330.84H2328.05H2325.25H2322.46H2319.67H2316.88H2314.09H2311.3H2308.51H2305.72H2302.93H2300.14H2297.34H2294.55H2291.76H2288.97H2286.18H2283.39H2280.6H2277.81H2275.02H2272.22H2269.43H2266.64H2263.85H2261.06H2258.27H2255.48H2252.69H2249.9H2247.11H2244.32H2241.52H2238.73H2235.94H2233.15H2230.36H2227.57H2224.78H2221.99H2219.2H2216.4H2213.61H2210.82H2208.03H2205.24H2202.45H2199.66H2196.87H2194.08H2191.29H2188.49H2185.7H2182.91H2180.12H2177.33H2174.54H2171.75H2168.96H2166.17H2163.38H2160.58H2157.79H2155H2152.21H2149.42H2146.63H2143.84H2141.05H2138.26H2135.47H2132.67H2129.88H2127.09H2124.3H2121.51H2118.72H2115.93H2113.14H2110.35H2107.56H2104.76H2101.97H2099.18H2096.39H2093.6H2090.81H2088.02H2085.23H2082.44H2079.65H2076.85H2074.06H2071.27H2068.48H2065.69H2062.9H2060.11H2057.32H2054.53H2051.74H2048.94H2046.15H2043.36H2040.57H2037.78H2034.99H2032.2H2029.41H2026.62H2023.83H2021.03H2018.24H2015.45H2012.66H2009.87H2007.08H2004.29H2001.5H1998.71H1995.92H1993.12H1990.33H1987.54H1984.75H1981.96H1979.17H1976.38H1973.59H1970.8H1968H1965.21H1962.42H1959.63H1956.84H1954.05H1951.26H1948.47H1945.68H1942.89H1940.09H1937.3H1934.51H1931.72H1928.93H1926.14H1923.35H1920.56H1917.77H1914.98H1912.18H1909.39H1906.6H1903.81H1901.02H1898.23H1895.44H1892.65H1889.86H1887.07H1884.27H1881.48H1878.69H1875.9H1873.11H1870.32H1867.53H1864.74H1861.95H1859.16H1856.36H1853.57H1850.78H1847.99H1845.2H1842.41H1839.62H1836.83H1834.04H1831.24H1828.45H1825.66H1822.87H1820.08H1817.29H1814.5H1811.71H1808.92H1806.13H1803.33H1800.54H1797.75H1794.96H1792.17H1789.38H1786.59H1783.8H1781.01H1778.22H1775.42H1772.63H1769.84H1767.05H1764.26H1761.47H1758.68H1755.89H1753.1H1750.31H1747.51H1744.72H1741.93H1739.14H1736.35H1733.56H1730.77H1727.98H1725.19H1722.39H1719.6H1716.81H1714.02H1711.23H1708.44H1705.65H1702.86H1700.07H1697.28H1694.48H1691.69H1688.9H1686.11H1683.32H1680.53H1677.74H1674.95H1672.16H1669.37H1666.57H1663.78H1660.99H1658.2H1655.41H1652.62H1649.83H1647.04H1644.25H1641.46H1638.66H1635.87H1633.08H1630.29H1627.5H1624.71H1621.92H1619.13H1616.34H1613.54H1610.75H1607.96H1605.17H1602.38H1599.59H1596.8H1594.01H1591.22H1588.43H1585.63H1582.84H1580.05H1577.26H1574.47H1571.68H1568.89H1566.1H1563.31H1560.52H1557.72H1554.93H1552.14H1549.35H1546.56H1543.77H1540.98H1538.19H1535.4H1532.61H1529.81H1527.02H1524.23H1521.44H1518.65H1515.86H1513.07H1510.28H1507.49H1504.69H1501.9H1499.11H1496.32H1493.53H1490.74H1487.95H1485.16H1482.37H1479.58H1476.78H1473.99H1471.2H1468.41H1465.62H1462.83H1460.04H1457.25H1454.46H1451.67H1448.87H1446.08H1443.29H1440.5H1437.71H1434.92H1432.13H1429.34H1426.55H1423.76H1420.96H1418.17H1415.38H1412.59H1409.8H1407.01H1404.22H1401.43H1398.64H1395.84H1393.05H1390.26H1387.47H1384.68H1381.89H1379.1H1376.31H1373.52H1370.73H1367.93H1365.14H1362.35H1359.56H1356.77H1353.98H1351.19H1348.4H1345.61H1342.82H1340.02H1337.23H1334.44H1331.65H1328.86H1326.07H1323.28H1320.49H1317.7H1314.91H1312.11H1309.32H1306.53H1303.74H1300.95H1298.16H1295.37H1292.58H1289.79H1287H1284.2H1281.41H1278.62H1275.83H1273.04H1270.25H1267.46H1264.67H1261.88H1259.08H1256.29H1253.5H1250.71H1247.92H1245.13H1242.34H1239.55H1236.76H1233.97H1231.17H1228.38H1225.59H1222.8H1220.01H1217.22H1214.43H1211.64H1208.85H1206.06H1203.26H1200.47H1197.68H1194.89H1192.1H1189.31H1186.52H1183.73H1180.94H1178.15H1175.35H1172.56H1169.77H1166.98H1164.19H1161.4H1158.61H1155.82H1153.03H1150.24H1147.44H1144.65H1141.86H1139.07H1136.28H1133.49H1130.7H1127.91H1125.12H1122.33H1119.53H1116.74H1113.95H1111.16H1108.37H1105.58H1102.79H1100H1097.21H1094.42H1091.62H1088.83H1086.04H1083.25H1080.46H1077.67H1074.88H1072.09H1069.3H1066.51H1063.71H1060.92H1058.13H1055.34H1052.55H1049.76H1046.97H1044.18H1041.39H1038.6H1035.8H1033.01H1030.22H1027.43H1024.64H1021.85H1019.06H1016.27H1013.48H1010.68H1007.89H1005.1H1002.31H999.521H996.73H993.939H991.148H988.357H985.566H982.775H979.984H977.193H974.402H971.611H968.82H966.029H963.238H960.447H957.656H954.865H952.074H949.283H946.492H943.701H940.91H938.119H935.328H932.537H929.746H926.955H924.164H921.373H918.582H915.791H913.233C891.332 1424.32 874.657 1414.85 863.034 1401.21C851.393 1387.55 844.672 1369.52 843.004 1346.99C844.362 1324.18 850.932 1305.99 862.565 1292.26C874.184 1278.54 891.008 1269.08 913.226 1264C1389.08 1263.33 1864.94 1263.33 2340.79 1264C2360.92 1268.22 2376.82 1276.4 2388.62 1288.44Z" fill="#141413" stroke="#141413" stroke-width="4"/>
</g>
<defs>
<clipPath id="clip0_563_16">
<rect width="2414" height="1432" fill="white" transform="translate(0.5)"/>
</clipPath>
</defs>
</svg>
