<svg width="1366" height="1365" viewBox="0 0 1366 1365" fill="none" xmlns="http://www.w3.org/2000/svg">
<path opacity="0.994" fill-rule="evenodd" clip-rule="evenodd" d="M363 277.5C386.437 276.438 407.437 282.938 426 297C494.528 365.194 562.694 433.694 630.5 502.5C647.308 528.817 650.641 556.817 640.5 586.5C624.623 622.607 596.956 641.274 557.5 642.5C536.812 642.715 518.312 636.548 502 624C433.472 555.806 365.306 487.306 297.5 418.5C274.495 381.25 275.828 344.917 301.5 309.5C317.853 290.741 338.353 280.074 363 277.5Z" fill="#141413"/>
<path opacity="0.992" fill-rule="evenodd" clip-rule="evenodd" d="M988 277.5C1035.14 277.177 1066.31 299.177 1081.5 343.5C1088.58 373.503 1082.58 400.503 1063.5 424.5C996.306 492.028 928.806 559.194 861 626C833.434 644.187 804.1 647.52 773 636C738.754 619.541 720.754 592.208 719 554C719.755 531.004 727.589 510.837 742.5 493.5C806.667 429.333 870.833 365.167 935 301C950.303 287.679 967.97 279.845 988 277.5Z" fill="#141413"/>
<path opacity="0.997" fill-rule="evenodd" clip-rule="evenodd" d="M669 679.5C714.192 676.167 746.359 694.833 765.5 735.5C767.927 741.632 769.593 747.966 770.5 754.5C771.488 853.535 771.155 952.535 769.5 1051.5C759.23 1089.77 734.73 1112.94 696 1121C650.785 1124.82 618.618 1106.32 599.5 1065.5C597.073 1059.37 595.407 1053.03 594.5 1046.5C593.512 947.465 593.845 848.465 595.5 749.5C605.947 711.216 630.447 687.883 669 679.5Z" fill="#141413"/>
</svg>
