<svg width="1365" height="1365" viewBox="0 0 1365 1365" fill="none" xmlns="http://www.w3.org/2000/svg">
<path opacity="0.994" fill-rule="evenodd" clip-rule="evenodd" d="M362.5 277.5C385.937 276.438 406.937 282.938 425.5 297C494.028 365.194 562.194 433.694 630 502.5C646.808 528.817 650.141 556.817 640 586.5C624.123 622.607 596.456 641.274 557 642.5C536.312 642.715 517.812 636.548 501.5 624C432.972 555.806 364.806 487.306 297 418.5C273.995 381.25 275.328 344.917 301 309.5C317.353 290.741 337.853 280.074 362.5 277.5Z" fill="#E5E5E0"/>
<path opacity="0.992" fill-rule="evenodd" clip-rule="evenodd" d="M987.5 277.5C1034.64 277.177 1065.81 299.177 1081 343.5C1088.08 373.503 1082.08 400.503 1063 424.5C995.806 492.028 928.306 559.194 860.5 626C832.934 644.187 803.6 647.52 772.5 636C738.254 619.541 720.254 592.208 718.5 554C719.255 531.004 727.089 510.837 742 493.5C806.167 429.333 870.333 365.167 934.5 301C949.803 287.679 967.47 279.845 987.5 277.5Z" fill="#E5E5E0"/>
<path opacity="0.997" fill-rule="evenodd" clip-rule="evenodd" d="M668.5 679.5C713.692 676.167 745.859 694.833 765 735.5C767.427 741.632 769.093 747.966 770 754.5C770.988 853.535 770.655 952.535 769 1051.5C758.73 1089.77 734.23 1112.94 695.5 1121C650.285 1124.82 618.118 1106.32 599 1065.5C596.573 1059.37 594.907 1053.03 594 1046.5C593.012 947.465 593.345 848.465 595 749.5C605.447 711.216 629.947 687.883 668.5 679.5Z" fill="#E5E5E0"/>
</svg>
