<?xml version="1.0" encoding="UTF-8"?>
<!DOCTYPE svg PUBLIC "-//W3C//DTD SVG 1.1//EN" "http://www.w3.org/Graphics/SVG/1.1/DTD/svg11.dtd">
<svg xmlns="http://www.w3.org/2000/svg" version="1.1" width="1469px" height="1469px" style="shape-rendering:geometricPrecision; text-rendering:geometricPrecision; image-rendering:optimizeQuality; fill-rule:evenodd; clip-rule:evenodd" xmlns:xlink="http://www.w3.org/1999/xlink">
<g><path style="opacity:0.995" fill="#fefffe" d="M 708.5,121.5 C 893.244,118.003 1050.08,181.67 1179,312.5C 1307.25,453.269 1361.59,618.935 1342,809.5C 1317.07,984.271 1234.57,1124.44 1094.5,1230C 1043.56,1267.31 987.89,1295.97 927.5,1316C 914.19,1318.97 902.69,1315.8 893,1306.5C 890.027,1301.92 888.027,1296.92 887,1291.5C 886.667,1228.17 886.333,1164.83 886,1101.5C 884.411,1068.72 873.744,1039.39 854,1013.5C 850.833,1010.33 847.667,1007.17 844.5,1004C 883.08,999.751 920.746,991.418 957.5,979C 1033.11,951.728 1083.27,899.894 1108,823.5C 1122.99,770.677 1127.32,717.01 1121,662.5C 1113.97,615.774 1094.63,575.107 1063,540.5C 1062.22,539.271 1061.72,537.938 1061.5,536.5C 1078.94,482.828 1076.94,429.828 1055.5,377.5C 1054.97,376.808 1054.31,376.308 1053.5,376C 1036.21,374.191 1019.21,375.858 1002.5,381C 980.701,387.733 959.701,396.4 939.5,407C 921.358,417.148 903.525,427.648 886,438.5C 784.669,411.833 683.336,411.833 582,438.5C 565.133,427.996 547.966,417.829 530.5,408C 504.397,393.447 476.73,383.114 447.5,377C 436.519,374.833 425.519,374.5 414.5,376C 413.692,376.308 413.025,376.808 412.5,377.5C 391.061,429.809 389.061,482.809 406.5,536.5C 397.507,548.334 388.674,560.334 380,572.5C 355.447,613.171 343.281,657.338 343.5,705C 343.483,746.363 349.316,786.863 361,826.5C 386.133,902.967 436.8,954.3 513,980.5C 548.747,992.381 585.247,1000.55 622.5,1005C 610.499,1016.16 601.333,1029.33 595,1044.5C 589.73,1058.59 585.564,1072.92 582.5,1087.5C 550.336,1101.83 517.003,1105.67 482.5,1099C 456.772,1092.06 435.605,1078.23 419,1057.5C 410,1044.17 401,1030.83 392,1017.5C 375.207,997.524 354.374,983.691 329.5,976C 317.9,973.17 306.233,972.837 294.5,975C 287.011,976.13 283.844,980.296 285,987.5C 288.083,992.588 291.917,997.088 296.5,1001C 324.1,1017.27 345.6,1039.43 361,1067.5C 368.097,1080.36 374.097,1093.69 379,1107.5C 404.289,1155.39 444.122,1181.89 498.5,1187C 516.184,1188.63 533.851,1188.3 551.5,1186C 561.524,1184.56 571.524,1183.06 581.5,1181.5C 581.969,1219.54 581.469,1257.54 580,1295.5C 576.947,1307.22 569.447,1314.05 557.5,1316C 551.833,1316.67 546.167,1316.67 540.5,1316C 390.218,1263.15 275.718,1167.65 197,1029.5C 125.597,895.68 104.93,754.347 135,605.5C 173.388,438.745 263.888,308.911 406.5,216C 499.062,158.646 599.728,127.146 708.5,121.5 Z"/></g>
</svg>
