<?xml version="1.0" encoding="UTF-8"?>
<!DOCTYPE svg PUBLIC "-//W3C//DTD SVG 1.1//EN" "http://www.w3.org/Graphics/SVG/1.1/DTD/svg11.dtd">
<svg xmlns="http://www.w3.org/2000/svg" version="1.1" width="2414px" height="1432px" style="shape-rendering:geometricPrecision; text-rendering:geometricPrecision; image-rendering:optimizeQuality; fill-rule:evenodd; clip-rule:evenodd" xmlns:xlink="http://www.w3.org/1999/xlink">
<g><path style="opacity:0.999" fill="#000000" d="M 912.5,-0.5 C 1388.5,-0.5 1864.5,-0.5 2340.5,-0.5C 2381.37,8.37457 2405.71,33.3746 2413.5,74.5C 2413.5,80.8333 2413.5,87.1667 2413.5,93.5C 2406.46,134.71 2382.46,159.876 2341.5,169C 1865.17,169.667 1388.83,169.667 912.5,169C 867.658,158.828 843.658,130.828 840.5,85C 843.41,38.6005 867.41,10.1005 912.5,-0.5 Z"/></g>
<g><path style="opacity:0.999" fill="#000000" d="M 2413.5,720.5 C 2413.5,726.5 2413.5,732.5 2413.5,738.5C 2406.46,779.71 2382.46,804.876 2341.5,814C 1584.83,814.667 828.167,814.667 71.5,814C 39.9335,808.436 17.7669,790.936 5,761.5C 2.71061,755.165 0.877281,748.831 -0.5,742.5C -0.5,733.833 -0.5,725.167 -0.5,716.5C 5.81329,685.415 23.48,663.249 52.5,650C 58.7086,647.864 65.042,646.198 71.5,645C 827.833,644.333 1584.17,644.333 2340.5,645C 2382.01,653.679 2406.35,678.846 2413.5,720.5 Z"/></g>
<g><path style="opacity:0.999" fill="#000000" d="M 2413.5,1336.5 C 2413.5,1342.83 2413.5,1349.17 2413.5,1355.5C 2406.28,1396.72 2382.28,1422.06 2341.5,1431.5C 1865.17,1431.5 1388.83,1431.5 912.5,1431.5C 867.849,1421.01 843.849,1392.84 840.5,1347C 843.219,1300.62 867.219,1272.28 912.5,1262C 1388.5,1261.33 1864.5,1261.33 2340.5,1262C 2381.56,1270.55 2405.89,1295.39 2413.5,1336.5 Z"/></g>
</svg>
