<?xml version="1.0" encoding="UTF-8"?>
<!DOCTYPE svg PUBLIC "-//W3C//DTD SVG 1.1//EN" "http://www.w3.org/Graphics/SVG/1.1/DTD/svg11.dtd">
<svg xmlns="http://www.w3.org/2000/svg" version="1.1" width="1469px" height="1469px" style="shape-rendering:geometricPrecision; text-rendering:geometricPrecision; image-rendering:optimizeQuality; fill-rule:evenodd; clip-rule:evenodd" xmlns:xlink="http://www.w3.org/1999/xlink">
<g><path style="opacity:0.994" fill="#fefffe" d="M 457.5,121.5 C 641.834,121.333 826.167,121.5 1010.5,122C 1122.97,130.636 1212.8,179.802 1280,269.5C 1319.85,325.702 1341.85,388.368 1346,457.5C 1346.67,641.833 1346.67,826.167 1346,1010.5C 1336.37,1130.65 1281.87,1224.15 1182.5,1291C 1129.95,1323.96 1072.61,1342.29 1010.5,1346C 826.167,1346.67 641.833,1346.67 457.5,1346C 345.032,1337.36 255.199,1288.2 188,1198.5C 148.152,1142.3 126.152,1079.63 122,1010.5C 121.333,826.167 121.333,641.833 122,457.5C 130.806,343.019 181.306,252.186 273.5,185C 329.069,147.199 390.402,126.032 457.5,121.5 Z M 454.5,244.5 C 640.834,244.333 827.167,244.5 1013.5,245C 1093.32,251.298 1153.82,288.465 1195,356.5C 1211.8,387.027 1221.13,419.693 1223,454.5C 1223.67,640.833 1223.67,827.167 1223,1013.5C 1216.71,1094.31 1178.87,1155.14 1109.5,1196C 1079.53,1212.16 1047.53,1221.16 1013.5,1223C 827.167,1223.67 640.833,1223.67 454.5,1223C 374.684,1216.7 314.184,1179.53 273,1111.5C 256.201,1080.97 246.868,1048.31 245,1013.5C 244.333,827.167 244.333,640.833 245,454.5C 250.467,380.798 283.3,322.964 343.5,281C 377.44,259.297 414.44,247.131 454.5,244.5 Z M 726.5,550.5 C 795.23,550.444 849.063,578.444 888,634.5C 928.405,703.676 927.071,772.009 884,839.5C 834.515,903.113 770.015,927.28 690.5,912C 627.682,894.516 584.515,855.35 561,794.5C 540.656,728.899 551.656,669.232 594,615.5C 629.313,575.76 673.479,554.094 726.5,550.5 Z"/></g>
<g><path style="opacity:0.987" fill="#fefffe" d="M 1048.5,335.5 C 1095.69,335.858 1123.52,359.192 1132,405.5C 1133.16,442.018 1117.33,468.184 1084.5,484C 1051.53,495.38 1022.7,488.88 998,464.5C 978.12,440.226 973.454,413.226 984,383.5C 996.887,355.762 1018.39,339.762 1048.5,335.5 Z"/></g>
<g><path style="opacity:0.992" fill="#fefffe" d="M 716.5,427.5 C 828.69,425.017 918.19,468.35 985,557.5C 1042.58,644.232 1055.25,737.232 1023,836.5C 988.345,927.822 925.178,990.322 833.5,1024C 733.163,1055.48 639.83,1041.48 553.5,982C 466.694,915.205 424.861,826.705 428,716.5C 435.958,618.719 479.125,540.885 557.5,483C 605.46,450.069 658.46,431.569 716.5,427.5 Z M 726.5,550.5 C 673.479,554.094 629.313,575.76 594,615.5C 551.656,669.232 540.656,728.899 561,794.5C 584.515,855.35 627.682,894.516 690.5,912C 770.015,927.28 834.515,903.113 884,839.5C 927.071,772.009 928.405,703.676 888,634.5C 849.063,578.444 795.23,550.444 726.5,550.5 Z"/></g>
</svg>
