<svg width="62" height="62" viewBox="0 0 62 62" fill="none" xmlns="http://www.w3.org/2000/svg">
<path d="M20.1501 5.16699H41.8501C50.1167 5.16699 56.8334 11.8837 56.8334 20.1503V41.8503C56.8334 45.8242 55.2548 49.6352 52.4449 52.4451C49.635 55.2551 45.8239 56.8337 41.8501 56.8337H20.1501C11.8834 56.8337 5.16675 50.117 5.16675 41.8503V20.1503C5.16675 16.1765 6.74534 12.3654 9.55526 9.55551C12.3652 6.74559 16.1763 5.16699 20.1501 5.16699ZM19.6334 10.3337C17.1669 10.3337 14.8014 11.3135 13.0573 13.0576C11.3132 14.8017 10.3334 17.1671 10.3334 19.6337V42.367C10.3334 47.5078 14.4926 51.667 19.6334 51.667H42.3667C44.8333 51.667 47.1988 50.6872 48.9428 48.9431C50.6869 47.199 51.6667 44.8335 51.6667 42.367V19.6337C51.6667 14.4928 47.5076 10.3337 42.3667 10.3337H19.6334ZM44.5626 14.2087C45.419 14.2087 46.2404 14.5489 46.8459 15.1545C47.4515 15.76 47.7917 16.5814 47.7917 17.4378C47.7917 18.2943 47.4515 19.1156 46.8459 19.7212C46.2404 20.3268 45.419 20.667 44.5626 20.667C43.7062 20.667 42.8848 20.3268 42.2792 19.7212C41.6736 19.1156 41.3334 18.2943 41.3334 17.4378C41.3334 16.5814 41.6736 15.76 42.2792 15.1545C42.8848 14.5489 43.7062 14.2087 44.5626 14.2087ZM31.0001 18.0837C34.4258 18.0837 37.7112 19.4445 40.1335 21.8669C42.5559 24.2892 43.9167 27.5746 43.9167 31.0003C43.9167 34.426 42.5559 37.7114 40.1335 40.1338C37.7112 42.5561 34.4258 43.917 31.0001 43.917C27.5744 43.917 24.289 42.5561 21.8666 40.1338C19.4443 37.7114 18.0834 34.426 18.0834 31.0003C18.0834 27.5746 19.4443 24.2892 21.8666 21.8669C24.289 19.4445 27.5744 18.0837 31.0001 18.0837ZM31.0001 23.2503C28.9447 23.2503 26.9734 24.0668 25.52 25.5202C24.0666 26.9737 23.2501 28.9449 23.2501 31.0003C23.2501 33.0558 24.0666 35.027 25.52 36.4804C26.9734 37.9338 28.9447 38.7503 31.0001 38.7503C33.0555 38.7503 35.0268 37.9338 36.4802 36.4804C37.9336 35.027 38.7501 33.0558 38.7501 31.0003C38.7501 28.9449 37.9336 26.9737 36.4802 25.5202C35.0268 24.0668 33.0555 23.2503 31.0001 23.2503Z" fill="white"/>
</svg>
