<?xml version="1.0" encoding="UTF-8"?>
<!DOCTYPE svg PUBLIC "-//W3C//DTD SVG 1.1//EN" "http://www.w3.org/Graphics/SVG/1.1/DTD/svg11.dtd">
<svg xmlns="http://www.w3.org/2000/svg" version="1.1" width="1469px" height="1469px" style="shape-rendering:geometricPrecision; text-rendering:geometricPrecision; image-rendering:optimizeQuality; fill-rule:evenodd; clip-rule:evenodd" xmlns:xlink="http://www.w3.org/1999/xlink">
<g><path style="opacity:0.995" fill="#fefffe" d="M 296.5,182.5 C 588.167,182.333 879.834,182.5 1171.5,183C 1228.8,189.969 1265.64,221.136 1282,276.5C 1283.43,283.102 1284.43,289.768 1285,296.5C 1285.67,588.167 1285.67,879.833 1285,1171.5C 1278.03,1228.8 1246.86,1265.64 1191.5,1282C 1184.9,1283.43 1178.23,1284.43 1171.5,1285C 879.833,1285.67 588.167,1285.67 296.5,1285C 239.197,1278.03 202.364,1246.86 186,1191.5C 184.566,1184.9 183.566,1178.23 183,1171.5C 182.333,879.833 182.333,588.167 183,296.5C 187.556,253.197 208.389,220.364 245.5,198C 261.642,189.555 278.642,184.388 296.5,182.5 Z M 411.5,317.5 C 459.646,316.474 494.146,337.474 515,380.5C 531.926,429.052 520.759,469.885 481.5,503C 442.73,528.523 403.397,529.523 363.5,506C 320.398,473.123 307.898,430.956 326,379.5C 343.448,343.547 371.948,322.88 411.5,317.5 Z M 919.5,608.5 C 997.249,606.621 1057.75,637.621 1101,701.5C 1118.41,730.057 1128.41,761.057 1131,794.5C 1131.5,906.833 1131.67,1019.17 1131.5,1131.5C 1074.83,1131.5 1018.17,1131.5 961.5,1131.5C 961.985,1025.47 961.485,919.474 960,813.5C 951.713,777.879 929.879,755.379 894.5,746C 855.098,739.288 824.265,752.455 802,785.5C 794.766,797.867 790.766,811.2 790,825.5C 789.5,927.499 789.333,1029.5 789.5,1131.5C 732.833,1131.5 676.167,1131.5 619.5,1131.5C 619.5,960.833 619.5,790.167 619.5,619.5C 676.167,619.5 732.833,619.5 789.5,619.5C 789.167,642.176 789.5,664.843 790.5,687.5C 821.936,642.601 864.936,616.268 919.5,608.5 Z M 336.5,619.5 C 392.833,619.5 449.167,619.5 505.5,619.5C 505.5,790.167 505.5,960.833 505.5,1131.5C 449.167,1131.5 392.833,1131.5 336.5,1131.5C 336.5,960.833 336.5,790.167 336.5,619.5 Z"/></g>
</svg>
